<svg xmlns="http://www.w3.org/2000/svg" viewBox="0 0 13 7" width="13" height="7" shape-rendering="crispEdges">
<!-- frame_03233.png · 6 regiones · suavizado 0 -->
<path fill="#153575" d="M9 0H10V1H9ZM8 1H9V2H8Z"/>
<path fill="#183c84" d="M10 0H11V1H10ZM1 1H2V2H1ZM12 1H13V2H12ZM4 2H5V3H4ZM8 4H9V5H8Z"/>
<path fill="#1a4292" d="M11 0H12V1H11ZM2 1H3V2H2ZM7 4H8V5H7Z"/>
<path fill="#2256be" d="M12 0H13V1H12ZM3 1H4V2H3Z"/>
<path fill="#122e66" d="M11 1H12V2H11V3H10H9H8V2H9V1H10ZM1 2H2H3H4V3H5V4H4H3H2H1H0V3V2ZM6 5H7H8H9V4H10V5V6V7H9H8H7H6V6Z"/>
<path fill="#1d49a1" d="M10 5H11V6H10Z"/>
</svg>
