<svg xmlns="http://www.w3.org/2000/svg" viewBox="0 0 47 41" width="47" height="41" shape-rendering="crispEdges">
<!-- carrier_10.png · 33 regiones · suavizado 0 -->
<path fill="#545454" d="M18 4H17H16V3H15H14V4H13H12V5H11V6H10H9V7H8H7V8H6V9H5H4H3V10H2V9V8H3H4V7H5V6H6H7V5H8H9V4H10V3H11H12V2H13V1H14H15V0H16H17V1H18V2H19H20V3H21V4H22H23V5H24H25V6H26V7H27H28V8H29V9H30V10H31H32V11H31V12H30V11H29H28V10H27H26H25V9H24V8H23H22V7H21V6H20V5H19H18ZM17 5H18V6H17ZM0 9H1V10H0ZM1 10H2V11H1ZM20 10H21V11H20ZM33 11H34V12H35V13H34H33V12H32V11ZM12 13H13V14H12ZM35 13H36H37V14H36V15H35V14ZM37 15H38V14H39V15V16H38H37ZM44 20H43V19H42V18H41V17H40H39V16H40H41H42V17H43V18H44H45V19H46V20H45ZM20 20H21V21H20ZM46 20H47V21H46ZM36 24H37V25H36ZM22 25H23V26H22ZM22 28H23V29H22ZM35 28H36V29H35ZM28 29H29V30H28ZM25 30H26V31H25ZM29 30H30V31H29ZM31 31H32V32H31Z"/>
<path fill="#183c84" d="M15 5H14V4V3H15H16V4H17V5H16ZM13 8H14H15V9V10H14H13H12H11H10V9H9V8H10H11H12ZM22 10H21H20H19V9H20H21V8H22V9H23V10ZM5 9H6V10H5ZM16 9H17V10H16ZM9 11H10V12V13H9V12ZM11 11H12V12H11ZM32 14H33V15V16H32H31V15V14ZM33 17H34V18H35H36V19H35H34H33H32H31H30H29H28H27H26V18H27H28V17H29H30H31H32ZM26 21H27H28H29H30H31V22H30H29H28H27H26H25H24V21V20H25H26ZM41 20H42V21H41ZM30 26H31V27H30ZM33 26H34V27H33Z"/>
<path fill="#5c5c5c" d="M12 4H13V5H14H15V6H14H13H12V5ZM17 4H18V5H17ZM19 5H20V6H19ZM8 7H9V8H8H7V7ZM13 7H14V8H13ZM18 7H19V8H18ZM4 9H5V10H6V11H7V12H8H9V13H10V14V15V16H9V15H8H7V14H6V13H5V14H4V13V12H3H2V11V10H3V9ZM38 23H39V22H40H41V21H42V20H41V19H40H39V20H38H37H36H35H34H33H32H31H30H29H28H27H26H25V19H24H23V18V17V16H22V15H21V14H20V13V12H21V11H22V10H23H24V9H25V10H26H27H28V11H29H30V12H31V11H32V12H33V13H34H35V14V15H36V14H37V15V16H38H39V17H40H41V18H42V19H43V20H44H45H46V21V22H45V23H44H43V24H42H41V25H40V26H39H38V27H37H36H35V28H34V27V26H35V25H36H37V24H38ZM9 10H10H11H12V11H11H10H9H8H7V10H8ZM18 10H19V11H18ZM15 11H16V12H15ZM11 13H12V14H11ZM39 15H40V16H39ZM10 16H11V17H10ZM25 22H26H27H28H29H30H31H32H33H34H35H36V23H35H34H33H32H31H30H29H28H27H26H25ZM20 24H21V25H20ZM29 25H30H31H32V26H31H30H29Z"/>
<path fill="#153575" d="M13 4H14V5H13ZM18 5H19V6H18ZM8 8H9V9H8H7H6V8H7ZM15 8H16V9H15ZM8 11H9V12H8ZM10 12H11V13H10ZM14 13H15V14H14ZM30 15H31V16H30ZM33 15H34V16H33ZM36 18H37H38V19H37H36ZM23 20H24V21H23ZM32 21H33V22H32H31V21ZM30 24H31V25H30H29H28H27H26V24H27H28H29ZM32 27H33V28H32Z"/>
<path fill="#122e66" d="M11 5H12V6H11ZM9 6H10V7H9ZM17 6H18V7H17ZM20 6H21V7H20H19V6ZM23 8H24V9V10H23V9ZM15 9H16V10H15ZM21 15H22V16H21ZM20 16H21V17H20ZM21 17H22V18H21ZM37 17H38V18H37ZM39 19H40V20H39ZM22 21H23V22H22ZM34 21H35V22H34H33V21ZM31 24H32V25H31ZM35 24H36V25H35ZM31 27H32V28H31ZM34 29H35H36V30H35H34ZM38 29H39V30H38ZM37 30H38V31H37Z"/>
<path fill="#646464" d="M15 5H16H17V6H16H15ZM11 7H12H13V8H12H11H10V7ZM16 7H17V8H16H15H14V7H15ZM35 16H36V17H35ZM24 19H25V20H24ZM40 19H41V20H40ZM39 21H40V22H39H38V23H37H36V22H37V21H38ZM23 23H24V22H25V23V24H26V25H27H28V26H29V27H28H27H26V26H25H24H23V25H22V24H23ZM34 24H35V25H34ZM32 25H33H34V26H33H32ZM29 27H30H31V28H30H29ZM34 28V29H33H32H31V28H32H33V27H34ZM35 27H36H37V28H36H35Z"/>
<path fill="#1a4292" d="M16 6H17V7H16H15H14H13H12H11H10V6H11H12H13H14H15ZM18 6H19V7H18ZM22 8H23V9H22ZM7 9H8H9H10V10H9H8H7H6V9ZM12 10H13H14H15V11V12H14H13H12V11ZM10 11H11V12H10ZM15 12H16V13H15ZM27 17H28V18H27ZM36 17H37V18H36H35H34V17H35ZM37 20H38H39H40H41V21H40H39H38H37H36H35H34H33H32H31H30H29H28H27H26V20H27H28H29H30H31H32H33H34H35H36ZM23 21H24V22H23ZM33 23H34H35H36H37H38V24H37H36H35H34H33H32H31H30H29H28H27H26V23H27H28H29H30H31H32ZM32 26H33V27H32H31V26Z"/>
<path fill="#6c6c6c" d="M9 7H10V8H9ZM30 8H31V9H30ZM15 10H16V11H15ZM37 13H38V14H37ZM35 21H36H37V22H36H35ZM33 24H34V25H33H32V24ZM24 26H25H26V27H25H24ZM29 26H30V27H29ZM23 27H24V28H25V29H26H27V30H28V31H27H26V30H25H24V29H23V28ZM31 31H30V30H29V29H28H27V28H26V27H27H28H29V28H30H31V29H32H33H34V30H33V31H32ZM34 28H35V29H34Z"/>
<path fill="#4c4c4c" d="M17 7H18V8H17ZM19 7H20H21V8H20H19ZM1 9H2V10H1ZM6 10H7V11H6ZM21 10H22V11H21ZM5 14H6V15H5ZM20 14H21V15H20ZM8 15H9V16H8ZM10 15H11V16H10ZM22 16H23V17H22ZM23 22H24V23H23H22V22ZM38 22H39V23H38ZM21 24H22V25H21ZM28 25H29V26H28ZM34 25H35V26H34ZM38 26H39V27H38ZM26 29H25V28H24V27H25H26V28H27V29ZM27 29H28V30H27Z"/>
<path fill="#7c7c7c" d="M21 7H22V8H21ZM31 8H32V9H31ZM37 14H38V15H37Z"/>
<path fill="#3c3c3c" d="M31 7H32V8H31ZM3 12H4V13H3ZM11 16H12V17H11ZM22 18H23V19H22ZM21 19H22V20V21H21V20ZM16 22H17V23H16ZM20 25H21V26H20ZM37 27H38V28H37ZM36 28H37V29H36ZM23 29H24V30H23Z"/>
<path fill="#0d2149" d="M16 8H17H18V9H17H16ZM12 12H13V13H12ZM17 19H18V20H17ZM36 30H37V31H36Z"/>
<path fill="#102858" d="M18 8H19V9H18ZM20 11H21V12H20ZM11 12H12V13H11ZM18 19H19V20H18ZM40 21H41V22H40ZM25 23H26V24H25ZM35 30H36V31H35H34V30Z"/>
<path fill="#a4a4a4" d="M19 8H20V9H19Z"/>
<path fill="#1d49a1" d="M20 8H21V9H20ZM14 12H15V13H14Z"/>
<path fill="#101010" d="M29 8H30V9H29ZM17 9H18V10H17ZM16 12H17V13H16ZM19 13H20V14H19ZM16 14H17V15V16H16V15ZM6 16H7V17H6ZM18 16H19V17H18ZM9 17H10V18H9ZM14 19V20H13V19V18H14H15V19ZM12 20H13V21H12ZM18 20H19V21H18ZM16 21H17V22H16ZM19 21H20V22H19ZM39 27H40V28H39Z"/>
<path fill="#9c9c9c" d="M18 9H19V10H18Z"/>
<path fill="#343434" d="M30 9H31V10H30ZM19 10H20V11H19ZM17 14H18V15H17ZM21 18H22V19H21ZM13 21H14V22H13ZM41 24H42V25H41ZM23 26H24V27H23Z"/>
<path fill="#949494" d="M31 9H32V10H31Z"/>
<path fill="#2c2c2c" d="M0 10H1V11H0ZM17 10H18V11H17ZM19 11H20V12H19ZM7 15H8V16H7H6V15V14H7ZM17 15H18V16H17ZM16 17H17V18H16ZM23 19H24V20H23ZM14 20H15V21V22H14V21ZM20 21H21V22H20ZM21 23H22H23V24H22H21ZM39 28H40V29H39ZM28 30H29V31H28Z"/>
<path fill="#848484" d="M16 10H17V11V12H16V11Z"/>
<path fill="#070f07" d="M1 11H2V12H1ZM7 17H8V18H9H10H11V19H12V20H11V21V22H12V23H13H14V22H15V23H16V24H17V25H18H19V26H20V27H21H22V28V29H23V30H24V31H25H26V32H27H28V31H29H30V32H31H32H33V31H34H35H36V32H37H38V31H39V30H40V29V28V27H39V26H40H41V25H42V24H43H44V25H45V26H46H47V27V28V29V30V31H46V32H45H44V33H43V34H42V35H41H40V36H39V37H38V38H37H36V39H35V40H34V41H33H32H31V40H30H29H28V41H27V40H26H25V39H24V38H23V37V36H24V35H23V34H22H21H20V33H19V34H18H17H16V33H15V34H14H13V33H14V32V31V30H13H12V29H11V28H10V27V26H11V25H10H9V24H8V23H7H6V22H5V21H4V20H3H2V19H1V18H0V17H1V16H2V15H3H4V14H5V15V16H6V17ZM13 14H14V15H13ZM14 15H15H16V16H15H14ZM8 16H9V17H8ZM16 16H17V17H16ZM15 19H16V20H15ZM4 22H5V23H4Z"/>
<path fill="#444444" d="M7 11H8V12H7ZM5 13H6V14H5ZM5 15H6V16H5ZM9 16H10V17H9Z"/>
<path fill="#242424" d="M17 11H18H19V12H18H17ZM12 14H13V15H12ZM19 16H20V17H19ZM18 17H19V18H18ZM22 17H23V18H22ZM20 19H21V20H20ZM18 21H19V22H18ZM21 21H22V22H21ZM17 22H18V23H17ZM22 27H23V28H22ZM33 30H34V31H33ZM26 31H27V32H26ZM30 31H31V32H30Z"/>
<path fill="#2256be" d="M13 12H14V13H13Z"/>
<path fill="#000000" d="M17 12H18V13V14H17V13ZM13 15H14V16H13H12V15ZM15 16H16V17H15H14V16ZM17 16H18V17H17ZM12 18V19H11V18V17H12ZM18 18H19V19H18ZM14 19H15V20H14ZM16 20H17V21H16H15V20ZM22 20H23V21H22ZM11 21H12V22H11ZM20 24V25H19V24H18V23H19V22H20H21H22V23H21V24ZM38 28H39V29H38Z"/>
<path fill="#1c1c1c" d="M19 14H20V15H21V16H20H19V15H18V14V13V12H19H20V13H19ZM11 14H12V15H11H10V14V13H11ZM7 16H8V17H7ZM21 16H22V17H21ZM8 17H9V18H8ZM10 17H11V18H10ZM15 17H16V18H15ZM17 17H18V18V19H17V18ZM20 17H21V18H20H19V17ZM22 19H23V20H22ZM19 20H20V21H19ZM12 21H13V22V23H12V22ZM15 21H16V22V23H15V22ZM17 21H18V22H17ZM43 23H44V24H43ZM21 25H22V26V27H21V26ZM40 25H41V26H40ZM38 27H39V28H38ZM37 28H38V29H37ZM24 30H25V31H24ZM32 31H33V32H32Z"/>
<path fill="#0a1a3a" d="M13 13H14V14H13ZM15 13H16V14V15H15V14ZM12 16H13H14V17H13H12ZM14 17H15V18H14ZM19 19H20V20H19ZM36 29H37H38V30H37H36ZM38 30H39V31H38ZM37 31H38V32H37Z"/>
<path fill="#000713" d="M16 13H17V14H16ZM18 15H19V16H18ZM12 17H13V18V19V20H12V19V18ZM13 20H14V21H13ZM17 20H18V21H17ZM18 22H19V23H18ZM17 23H18V24H17H16V23Z"/>
<path fill="#050d1d" d="M14 14H15V15H14ZM13 17H14V18H13ZM15 18H16H17V19H16H15ZM19 18H20V19H19ZM18 24H19V25H18ZM19 25H20V26H19ZM39 29H40V30H39ZM36 31H37V32H36Z"/>
<path fill="#02060e" d="M11 15H12V16H11ZM17 24H18V25H17Z"/>
<path fill="#08142c" d="M20 18H21V19H20ZM16 19H17V20H16ZM22 26H23V27H22Z"/>
<path fill="#0b1f0b" d="M11 20H12V21H11ZM13 22H14V23H13ZM20 26H21V27H20ZM27 31H28V32H27Z"/>
</svg>
