<svg xmlns="http://www.w3.org/2000/svg" viewBox="0 0 12 12" width="12" height="12" shape-rendering="crispEdges">
<!-- 00012.png · 67 regiones · suavizado 0 -->
<path fill="#b56c59" d="M5 0H6V1H5Z"/>
<path fill="#aa5541" d="M6 0H7V1H6Z"/>
<path fill="#815a71" d="M4 1H5V2H4Z"/>
<path fill="#a1a6ab" d="M5 1H6V2H5Z"/>
<path fill="#bdc5ca" d="M6 1H7V2H6Z"/>
<path fill="#d5aab0" d="M7 1H8V2H7Z"/>
<path fill="#845b65" d="M3 2H4V3H3Z"/>
<path fill="#6f757d" d="M4 2H5V3H4Z"/>
<path fill="#6d747d" d="M5 2H6V3H5Z"/>
<path fill="#aebbc5" d="M6 2H7V3H6Z"/>
<path fill="#ffffff" d="M7 2H8V3H7ZM10 5H11V6V7V8H10V9H9V10H8H7V11H6V10V9V8H7V7H8V6H9H10Z"/>
<path fill="#ddae9f" d="M8 2H9V3H8Z"/>
<path fill="#7d848d" d="M2 3H3V4H2Z"/>
<path fill="#6b727a" d="M3 3H4V4H3Z"/>
<path fill="#7b8590" d="M4 3H5V4H4Z"/>
<path fill="#98a8b7" d="M5 3H6V4H5Z"/>
<path fill="#95a3b2" d="M6 3H7V4H6ZM7 4H8V5H7Z"/>
<path fill="#aebac6" d="M7 3H8V4H7Z"/>
<path fill="#fbffff" d="M8 3H9V4H8Z"/>
<path fill="#fff8ff" d="M9 3H10V4H9Z"/>
<path fill="#89919a" d="M1 4H2V5H1Z"/>
<path fill="#6d757d" d="M2 4H3V5H2Z"/>
<path fill="#818c98" d="M3 4H4V5H3Z"/>
<path fill="#9eadbe" d="M4 4H5V5H4Z"/>
<path fill="#abbdd0" d="M5 4H6V5H5Z"/>
<path fill="#a8b9ce" d="M6 4H7V5H6Z"/>
<path fill="#b4c2d0" d="M8 4H9V5H8Z"/>
<path fill="#feffff" d="M9 4H10V5H9Z"/>
<path fill="#fff5ff" d="M10 4H11V5H10Z"/>
<path fill="#c2bcd8" d="M0 5H1V6H0Z"/>
<path fill="#a5b0bf" d="M1 5H2V6H1Z"/>
<path fill="#737c86" d="M2 5H3V6H2Z"/>
<path fill="#99a9b9" d="M3 5H4V6H3Z"/>
<path fill="#b0c3d9" d="M4 5H5V6H4Z"/>
<path fill="#acbfd3" d="M5 5H6V6H5Z"/>
<path fill="#adc0d4" d="M6 5H7V6H6Z"/>
<path fill="#a6b8cc" d="M7 5H8V6H7Z"/>
<path fill="#a5b1bf" d="M8 5H9V6H8Z"/>
<path fill="#dee9f5" d="M9 5H10V6H9Z"/>
<path fill="#e1b1a2" d="M11 5H12V6H11Z"/>
<path fill="#5d5969" d="M0 6H1V7H0Z"/>
<path fill="#464c53" d="M1 6H2V7H1Z"/>
<path fill="#353a3e" d="M2 6H3V7H2Z"/>
<path fill="#565e67" d="M3 6H4V7H3Z"/>
<path fill="#a8bacc" d="M4 6H5V7H4Z"/>
<path fill="#afc0d5" d="M5 6H6V7H5Z"/>
<path fill="#a6b7cc" d="M6 6H7V7H6Z"/>
<path fill="#b8c8da" d="M7 6H8V7H7Z"/>
<path fill="#e3b6ae" d="M11 6H12V7H11Z"/>
<path fill="#3c4046" d="M1 7H2V8H1Z"/>
<path fill="#363b40" d="M2 7H3V8H2Z"/>
<path fill="#2e3235" d="M3 7H4V8H3Z"/>
<path fill="#606971" d="M4 7H5V8H4Z"/>
<path fill="#a8bacb" d="M5 7H6V8H5Z"/>
<path fill="#b2c2d4" d="M6 7H7V8H6Z"/>
<path fill="#3e4349" d="M2 8H3V9H2Z"/>
<path fill="#343a3e" d="M3 8H4V9H3Z"/>
<path fill="#2d3134" d="M4 8H5V9H4Z"/>
<path fill="#6f7882" d="M5 8H6V9H5Z"/>
<path fill="#3d4046" d="M3 9H4V10H3Z"/>
<path fill="#2c3136" d="M4 9H5V10H4Z"/>
<path fill="#5a5c60" d="M5 9H6V10H5Z"/>
<path fill="#30353b" d="M4 10H5V11H4Z"/>
<path fill="#626568" d="M5 10H6V11H5Z"/>
<path fill="#fff1fe" d="M7 10H8V11H7Z"/>
<path fill="#535658" d="M5 11H6V12H5Z"/>
<path fill="#f2e0ee" d="M6 11H7V12H6Z"/>
</svg>
