<svg xmlns="http://www.w3.org/2000/svg" viewBox="0 0 22 19" width="22" height="19" shape-rendering="crispEdges">
<!-- efecto-77_05.png · 23 regiones · suavizado 0 -->
<path fill="#530707" d="M5 0H6H7V1H6H5ZM12 0H13V1H12ZM14 1H15V2H14ZM16 2H17V3H16ZM1 3H2V4H1ZM18 3H19V4H18ZM19 5H20V6H19ZM10 6H11V7V8H10V7ZM3 9V10H2V9V8H3ZM20 8H21V9H20ZM1 10H2V11H1ZM19 11H20V12H19ZM1 12H2V13H1ZM18 14H19V15H18ZM17 15H18V16H17ZM5 16H6V17H5ZM14 16H15V17H14Z"/>
<path fill="#130000" d="M7 0H8V1H9V2H8H7V1ZM0 3H1V4H0ZM1 9H2V10H1ZM20 11H21V12H20ZM3 16H4V17H3ZM5 17H6V18H5ZM16 17H17V18H16ZM10 18H11V19H10Z"/>
<path fill="#3f0000" d="M11 0H12V1H11ZM13 0H14V1H13ZM4 1H5V2H4ZM0 4H1V5H0ZM1 6H2V7V8H1V7ZM19 12H20V13H19ZM0 13H1V14H0ZM16 16H17V17H16ZM8 18H9V19H8Z"/>
<path fill="#170b00" d="M3 1H4V2H3ZM15 1H16V2H15ZM21 6H22V7H21ZM20 9H21V10H20ZM19 13H20V14H19ZM11 18H12V19H11Z"/>
<path fill="#831717" d="M6 1H7V2H6H5V1ZM2 3H3V4H2ZM10 3H11V4H10ZM20 6H21V7V8H20V7ZM11 7H12V8H11ZM19 10H20V11H19ZM1 13H2V14V15V16H1V15V14ZM12 16H13V17H12ZM10 17H11V18H10Z"/>
<path fill="#972323" d="M10 1H11V2H10ZM12 1H13V2H12ZM8 2H9V3H8ZM8 4H9V5V6H8V5ZM1 5H2V6H1ZM18 12H19V13H18ZM16 15H17V16H16H15H14V15H15ZM7 17H8V18H7ZM9 17H10V18H9Z"/>
<path fill="#af2f2f" d="M11 1H12V2H11ZM13 1H14V2H13ZM10 2H11V3H10ZM11 3H12V4H11ZM1 4H2V5H1ZM18 4H19V5V6H18V5ZM12 5H13V6V7V8H12V7V6ZM9 7H10V8H9ZM3 8H4V9H3ZM19 9H20V10H19ZM2 10H3V11H2ZM18 11H19V12H18ZM17 13H18V14V15H17V14ZM2 15H3H4V16H3H2ZM5 15H6V16H5Z"/>
<path fill="#6b0f0f" d="M3 2H4V3H3ZM9 2H10V3H9ZM8 3H9V4H8ZM17 3H18V4H17ZM11 4H12V5V6H11V5ZM1 8H2V9H1ZM1 11H2V12H1ZM18 13H19V14H18ZM13 16H14V17H13ZM6 17H7V18H6ZM11 17H12V18H11Z"/>
<path fill="#b76313" d="M4 2H5V3H4ZM15 2H16V3H15ZM4 15H5V16H4ZM6 16H7V17H6ZM11 16H12V17H11Z"/>
<path fill="#eb973f" d="M6 4H5H4V3H5V2H6V3H7V4ZM13 4V5H12V4V3H11V2H12H13V3ZM7 4H8V5V6H7V5ZM17 4H18V5H17ZM2 5H3V6H2ZM4 6H5V7H4H3V6ZM19 7H20V8H19H18V7V6H19ZM8 7H9V8H8ZM13 8H14H15V9H14H13H12V8ZM4 9H5V10V11H4H3V10H4ZM10 10V11H11V12H10H9V11V10V9H10H11V10ZM18 9H19V10H18ZM14 10H15V11H14ZM13 11H14V12H13ZM17 11H18V12H17ZM11 12H12V13H11ZM16 12H17V13H16ZM3 13H4V14H3ZM9 13H10H11V14H10V15H9V14H8H7V13H8ZM4 14H5V15H4ZM6 14H7V15H6ZM15 14H16V15H15ZM9 16H10V17H9H8V16V15H9ZM12 15H13V16H12Z"/>
<path fill="#cf6f17" d="M6 2H7V3H6ZM7 3H8V4H7ZM16 3H17V4H16ZM2 6H3V7H2ZM3 7H4V8H3ZM17 12H18V13H17ZM3 14V15H2V14V13H3ZM8 14H9V15H8V16V17H7V16H6V15H7V14ZM13 15H14V16H13Z"/>
<path fill="#c73f3f" d="M7 2H8V3H7ZM9 6H10V7H9ZM13 6H14V7H13ZM19 6H20V7H19ZM2 7H3V8H2ZM11 8H12V9H11H10V8ZM3 9H4V10H3ZM13 9H14V10V11H13V10ZM2 11H3V12V13H2V12Z"/>
<path fill="#e77f1f" d="M13 2H14H15V3H14H13ZM3 3H4V4H3ZM2 4H3V5H2ZM4 7H5V8V9H4V8ZM19 8H20V9H19ZM13 10V11H12V10V9H13ZM14 9H15V10H14ZM18 10H19V11H18ZM3 14H4V15H3ZM16 14H17V15H16ZM10 16H11V17H10Z"/>
<path fill="#000000" d="M9 3H10V4H9ZM10 4H11V5V6H10H9V5H10ZM11 6H12V7H11ZM0 8H1V9H0ZM20 10H21V11H20ZM0 15H1V16H0ZM1 16H2V17H1Z"/>
<path fill="#fcb434" d="M13 3H14V4H13ZM15 3H16V4H15ZM3 4H4V5V6H3V5ZM17 5H18V6H17ZM4 12V13H3V12V11H4ZM16 13H17V14H16ZM5 14H6V15H5ZM14 14H15V15H14ZM11 15H12V16H11Z"/>
<path fill="#fcd054" d="M18 9V10V11H17V12H16V13V14H15H14V15H13H12H11V16H10H9V15H10V14H11V13H12V12H13H14V11H15V10H16V9V8H15V7V6H14V5H13V4H14V3H15V4H16H17V5V6H18V7V8H19V9ZM4 4H5H6H7V5V6H8V7V8H7V7H6V8V9H5V8V7V6H4V5ZM8 8H9V9H8ZM6 12H5V13H6ZM8 10H9V11V12H8V11Z"/>
<path fill="#270000" d="M9 4H10V5H9ZM20 5H21H22V6H21H20ZM4 16H5V17H4ZM12 17H13H14H15V16H16V17V18H15H14H13H12ZM9 18H10V19H9Z"/>
<path fill="#efab5f" d="M13 5H14V6H13ZM8 6H9V7H8ZM14 6H15V7V8H14V7ZM9 8H10V9H9ZM15 8H16V9V10H15V9ZM10 10H11V11H10ZM12 11H13V12H12H11V11ZM8 12H9V13H8Z"/>
<path fill="#fce074" d="M6 7H7V8H6ZM6 11H7V10V9V8H8V9H9V10H8V11V12H7H6ZM5 9H6V10H5ZM5 12H6V13H5Z"/>
<path fill="#cf5353" d="M13 7H14V8H13ZM11 9H12V10V11H11V10ZM9 12H10H11V13H10H9Z"/>
<path fill="#f3ef77" d="M6 8H7V9V10V11H6V10V9Z"/>
<path fill="#2b1700" d="M2 16H3V17H2Z"/>
<path fill="#9f530b" d="M8 17H9V18H8Z"/>
</svg>
