<svg xmlns="http://www.w3.org/2000/svg" viewBox="0 0 30 23" width="30" height="23" shape-rendering="crispEdges">
<!-- frame_04280.png · 40 regiones · suavizado 0 -->
<path fill="#122e66" d="M15 0H16V1H15ZM17 0H18H19V1H18H17ZM19 1H20V2H19ZM17 3H18V2H19V3V4H18H17ZM10 6H11V7H10ZM17 6H18V7H17ZM19 6H20V7H19ZM4 7H5V8H4ZM8 7H9V8H8ZM11 7H12V8H11ZM18 7H19V8H18ZM17 16H18V17H17ZM15 17H16V18H15ZM17 19H18V20H17Z"/>
<path fill="#1a4292" d="M16 0H17V1H16ZM16 2H17V3H16ZM3 7H4V8H3ZM17 13H18V14H17ZM15 21H16V22H15Z"/>
<path fill="#153575" d="M19 0H20V1H19ZM16 1H17V2H16ZM19 2H20V3H19ZM19 5H20V6H19ZM7 7H8V8H7ZM10 7H11V8H10ZM17 8H18V9H17ZM17 15H18V16H17ZM16 17H17V18H16ZM17 18H18V19H17ZM17 20H18V21H17Z"/>
<path fill="#183c84" d="M15 1H16V2H15ZM16 3H17V4H16H15V3ZM19 3H20V4V5H19V4ZM15 6H16V7H15ZM2 7H3V8H2ZM6 7H7V8H6ZM9 7H10V8H9ZM17 7H18V8H17ZM16 8H17V9H16ZM17 14H18V15H17ZM17 21H18V22H17Z"/>
<path fill="#0a1a3a" d="M17 1H18V2H17ZM3 8H4V9H3H2H1V8H2ZM6 8H7H8V9H7H6ZM11 8H12V9H11H10V8ZM18 13H19V14V15H18V14ZM19 16H20V17H19V18V19H18V18V17V16Z"/>
<path fill="#102858" d="M18 1H19V2H18ZM17 5H18V6H17ZM9 6H10V7H9ZM15 7H16V8H15ZM19 7H20V8H19ZM18 8H19V9H18ZM15 13H16V14H15ZM19 14H20V15V16H19V15ZM17 17H18V18H17ZM18 21H19V22H18Z"/>
<path fill="#2050b0" d="M15 2H16V3H15ZM1 7H2V8H1ZM16 13H17V14H16ZM16 19H17V20H16ZM16 21H17V22H16Z"/>
<path fill="#0d2149" d="M17 2H18V3H17ZM18 4H19V5V6V7H18V6V5H17V4ZM19 8H20V9H19ZM19 13H20V14H19ZM18 15H19V16H18ZM19 17H20V18V19V20V21V22H19V21H18V20V19H19V18Z"/>
<path fill="#2256be" d="M15 4H16V5V6H15V5ZM16 7H17V8H16ZM17 16V17H16V16H15V15V14H16H17V15ZM16 18H17V19H16ZM16 20H17V21H16Z"/>
<path fill="#1d49a1" d="M16 4H17V5V6V7H16V6V5ZM15 16H16V17H15ZM15 18H16V19V20V21H15V20V19Z"/>
<path fill="#255dcd" d="M0 7H1V8H0Z"/>
<path fill="#9c9c9c" d="M5 7H6V8H5Z"/>
<path fill="#050d1d" d="M12 7H13V8V9H12V8ZM5 9H6V10V11H5H4H3V10H4H5ZM10 9H11V10H10ZM16 22H17V23H16Z"/>
<path fill="#08142c" d="M5 8H6V9H5V10H4H3V11H2V10H1H0V9V8H1V9H2H3H4V8ZM8 8H9H10V9H9H8ZM7 9H8V10H7ZM17 22H18H19H20V23H19H18H17Z"/>
<path fill="#526246" d="M13 8H14H15V9H14H13ZM21 9H22H23V10V11H22V10H21ZM25 9H26V10H25ZM18 10H19H20V11H19H18Z"/>
<path fill="#5c5c5c" d="M15 8H16V9H15Z"/>
<path fill="#304026" d="M20 8H21V9H20ZM22 8H23V9H22Z"/>
<path fill="#415136" d="M21 8H22V9H21ZM24 8H25H26V9H25H24H23V8ZM26 9H27V10H26ZM21 10H22V11H21ZM23 10H24H25V11H24H23Z"/>
<path fill="#545454" d="M6 9H7V10H6ZM17 10H18V11H17Z"/>
<path fill="#02060e" d="M8 9H9H10V10H9H8ZM11 9H12H13V10H12H11Z"/>
<path fill="#2c2c2c" d="M13 9H14V10H13ZM2 11H3V12H2ZM7 11H8V12H7H6H5V11H6ZM10 11H11V12H10ZM12 11H13V12H12ZM19 11H20V12H19ZM21 11H22V12H21ZM25 11H26V12H25H24V11ZM13 12H14V13V14H13V13Z"/>
<path fill="#c6d6be" d="M14 9H15H16V10H15H14Z"/>
<path fill="#b2c1a8" d="M16 9H17V10H16ZM3 14H4V15H3Z"/>
<path fill="#9dad92" d="M17 9H18V10H17Z"/>
<path fill="#89987c" d="M18 9H19H20V10H19H18ZM4 14H5V15H4Z"/>
<path fill="#748366" d="M20 9H21V10H20ZM14 10H15V11H14ZM5 14H6V15H5Z"/>
<path fill="#637256" d="M24 9H25V10H24H23V9ZM15 10H16H17V11H16H15Z"/>
<path fill="#283820" d="M27 9H28V10H27ZM25 10H26V11H25ZM18 11H19V12H18ZM20 11H21V12H20ZM22 11H23V12H22ZM12 13H13V14H12Z"/>
<path fill="#213019" d="M28 9H29V10H28ZM16 11H17V12H16ZM26 11H27V12H26ZM10 12H11V13H10ZM23 12H24H25V13H24H23H22V12ZM25 13H26V14H25Z"/>
<path fill="#444444" d="M6 10H7V11H6Z"/>
<path fill="#1c1c1c" d="M9 10H10H11H12V11H11H10H9H8H7V10H8ZM26 10H27V11H26ZM29 10H30V11H29ZM3 11H4V12H3ZM7 12H8V13H7ZM26 12H27V13V14H26V13ZM9 13H10V14H9ZM22 13H23V14H22H21V13ZM24 13H25V14H24Z"/>
<path fill="#242424" d="M15 11H16V12H15H14H13V11H12V10H13H14V11ZM4 11H5V12H4ZM12 13V14H11H10V13H11V12V11H12V12H13V13ZM17 11H18V12H17ZM23 11H24V12H23ZM16 12H17V13H16ZM20 13H21V14H20Z"/>
<path fill="#4c4c4c" d="M20 10H21V11H20Z"/>
<path fill="#101010" d="M27 10H28V11V12H27V11ZM29 11H30V12H29ZM17 12H18H19H20V13H19H18H17Z"/>
<path fill="#12210c" d="M29 11V12V13H28V12V11V10H29ZM23 13H24V14H23Z"/>
<path fill="#343434" d="M9 11H10V12H9H8V11ZM14 12H15V13V14H14V13Z"/>
<path fill="#070f07" d="M3 12H4V13H5V14H4H3V13Z"/>
<path fill="#000000" d="M4 12H5H6V13V14H5V13H4Z"/>
<path fill="#192913" d="M6 12H7V13H6ZM9 12H10V13H9H8V12ZM20 12H21H22V13H21H20ZM25 12H26V13H25ZM27 12H28V13H27Z"/>
<path fill="#3c3c3c" d="M15 12H16V13H15Z"/>
</svg>
