<svg xmlns="http://www.w3.org/2000/svg" viewBox="0 0 16 5" width="16" height="5" shape-rendering="crispEdges">
<!-- frame_05499.png · 24 regiones · suavizado 0 -->
<path fill="#170b00" d="M3 0H4V1H3Z"/>
<path fill="#2b1700" d="M4 0H5V1H4ZM13 0H14V1H13Z"/>
<path fill="#270000" d="M14 0H15V1H14ZM0 1H1V2H0ZM15 1H16V2H15ZM14 2H15V3H14ZM9 3H10V4H9ZM2 4H3V5H2Z"/>
<path fill="#af2f2f" d="M1 1H2V2H1Z"/>
<path fill="#eb973f" d="M2 1H3V2H2ZM14 1H15V2H14Z"/>
<path fill="#fefde2" d="M3 1H4V2H3Z"/>
<path fill="#fffbf3" d="M4 1H5V2H4Z"/>
<path fill="#f7d7a7" d="M5 1H6V2H5ZM3 2H4V3H3Z"/>
<path fill="#fbf6d4" d="M6 1H7H8V2H7H6ZM3 3H4V4H3Z"/>
<path fill="#f3c383" d="M8 1H9V2H8Z"/>
<path fill="#733b07" d="M9 1H10V2H9Z"/>
<path fill="#130000" d="M10 1H11V2H10Z"/>
<path fill="#5b2f00" d="M13 1H14V2H13Z"/>
<path fill="#b76313" d="M1 2H2V3H1Z"/>
<path fill="#efab5f" d="M2 2H3V3H2Z"/>
<path fill="#ffffff" d="M6 2H7H8V3V4H7H6H5V3H4V2H5Z"/>
<path fill="#f8efc6" d="M8 2H9V3H8ZM3 4H4V5H3Z"/>
<path fill="#c84000" d="M9 2H10V3H9Z"/>
<path fill="#7e6545" d="M2 3H3V4H2Z"/>
<path fill="#efbbbb" d="M4 3H5V4H4Z"/>
<path fill="#cbad7a" d="M8 3H9V4H8Z"/>
<path fill="#f0deac" d="M4 4H5H6V5H5H4Z"/>
<path fill="#8e734f" d="M6 4H7V5H6Z"/>
<path fill="#835b2f" d="M7 4H8V5H7Z"/>
</svg>
