<svg xmlns="http://www.w3.org/2000/svg" viewBox="0 0 20 18" width="20" height="18" shape-rendering="crispEdges">
<!-- efecto-33_02.png · 32 regiones · suavizado 0 -->
<path fill="#183c84" d="M4 2H3V1V0H4H5V1V2ZM7 2H8V3H7ZM4 4H5H6V5H5V6V7V8V9H6V10H5V11V12H4V11H3V10V9V8V7V6V5H4ZM9 5H10V6H9ZM8 6H9V7H8ZM11 7H12V8H11ZM12 16H13H14V15H15H16V14H17V13V12V11V10H16V9H17H18V10V11V12V13V14V15V16V17V18H17H16V17H15H14H13H12ZM10 15H11H12V16H11H10H9H8H7H6H5H4H3V15V14H4V13H5V12H6V13V14H7V15H8H9ZM13 12H14V13V14H13V13Z"/>
<path fill="#1a4292" d="M7 2V3H6V4H5V3V2V1V0H6H7H8H9V1H10V2H9H8ZM11 2H12V3H11ZM10 3H11V4H10ZM16 7H17V6V5V4V3H18V4V5V6V7V8V9H17H16V8ZM7 4H8V5H7ZM14 5H15V6H14ZM14 7H15V8H14ZM5 10H6V11V12H5V11ZM6 12H7V13H8V14H9V15H8H7V14H6V13ZM10 13H11V14H10ZM14 13H15V14H14ZM11 16H12V17H11Z"/>
<path fill="#1d49a1" d="M11 1H12V2H11H10V1ZM16 3H17V4V5V6V7H16H15V6H16V5V4ZM10 4H11V5H10ZM14 8H15V9H14ZM8 9H9V10H8ZM12 9H13V10H12ZM7 10H8V11H7ZM8 11H9V12H8Z"/>
<path fill="#8c8c8c" d="M0 2H1V3H0ZM0 13H1V14H0Z"/>
<path fill="#000000" d="M2 3H3V2H4V3V4H3H2ZM13 10H14V11H13ZM3 12H4V13H3ZM9 12H10V13V14H9V13ZM12 13H13V14V15H12V14Z"/>
<path fill="#153575" d="M4 2H5V3H4ZM12 3H13V4H12ZM13 4H14V5H13ZM7 7H8V8H7ZM15 11H16V12H15ZM16 13H17V14H16Z"/>
<path fill="#0a1a3a" d="M8 2H9V3H8ZM6 6H7V7H6ZM8 8H9V9H8ZM16 11H17V12H16ZM7 12H8V13H7ZM8 13H9V14H8Z"/>
<path fill="#08142c" d="M9 2H10V3H9ZM3 4H4V5H3ZM6 10H7V11H6ZM7 11H8V12H7ZM8 12H9V13H8Z"/>
<path fill="#0d2149" d="M10 2H11V3H10ZM4 3H5V4H4ZM7 5H8V6H7ZM15 10H16H17V11H16H15ZM3 11H4V12H3ZM4 12H5V13H4ZM16 12H17V13H16Z"/>
<path fill="#2050b0" d="M16 5V6H15V5H14V4H13V3H12V2H13H14V3H15H16V4ZM8 4H9V5H8ZM10 9H11V10V11V12V13H10V12V11V10ZM8 10H9V11H8Z"/>
<path fill="#646464" d="M0 3H1V4H0Z"/>
<path fill="#070f07" d="M1 3H2V4H1ZM6 5H7V6H6ZM9 10H10V11V12H9V11ZM12 11H13V12H12ZM2 12H3V13H2ZM3 13H4V14H3Z"/>
<path fill="#122e66" d="M6 3H7V4H6ZM19 18H18V17V16V15V14V13V12V11V10V9V8V7V6V5V4V3H19H20V4V5V6V7V8V9V10V11V12V13V14V15V16V17V18ZM5 5H6V6H5ZM6 7H7V8H6ZM15 7H16V8H15ZM5 8H6V9H5ZM6 11H7V12H6ZM13 11H14V12H13ZM13 15H14V16H13H12V15Z"/>
<path fill="#050d1d" d="M7 3H8V4H7ZM6 4H7V5H6ZM6 9H7V10H6ZM11 14H12V15H11ZM13 14H14V15H13Z"/>
<path fill="#242424" d="M8 3H9V4H8ZM12 5H13V6V7H12V6ZM15 8H16V9H15ZM14 10H15V11H14Z"/>
<path fill="#343434" d="M9 3H10V4H9ZM2 14H3V15H2Z"/>
<path fill="#444444" d="M11 3H12V4H11ZM10 6H11V7H10ZM14 6H15V7H14ZM13 9H14V10H13Z"/>
<path fill="#6c6c6c" d="M0 4H1V5H0Z"/>
<path fill="#4c4c4c" d="M1 4H2V5H1Z"/>
<path fill="#2c2c2c" d="M2 4H3V5H2ZM13 5H14V6H13ZM2 13H3V14H2Z"/>
<path fill="#1c1c1c" d="M9 4H10V5H9ZM10 5H11V6H10ZM8 7H9V8H8Z"/>
<path fill="#255dcd" d="M11 4H12V5H11ZM8 5H9V6H8ZM9 6H10V7H9ZM8 9V10H7V9V8H8ZM13 8H14V9H13H12V10H11V9H10V8H11H12Z"/>
<path fill="#5c5c5c" d="M12 4H13V5H12Z"/>
<path fill="#102858" d="M11 5H12V6H11ZM5 6H6V7V8H5V7ZM6 8H7V9H6ZM15 12H16V13H15ZM9 14H10V15H9ZM15 14H16V15H15Z"/>
<path fill="#101010" d="M7 6H8V7H7ZM11 6H12V7H11ZM9 9H10V10H9ZM14 9H15H16V10H15H14ZM12 10H13V11H12ZM1 12H2V13H1ZM15 13H16V14H15Z"/>
<path fill="#747474" d="M13 6H14V7H13Z"/>
<path fill="#2256be" d="M9 7H10H11V8H10H9ZM12 7H13V8H12ZM12 12V13V14H11V13V12V11V10H12V11ZM15 12V13H14V12V11H15Z"/>
<path fill="#2864dc" d="M13 7H14V8H13Z"/>
<path fill="#3c3c3c" d="M9 8H10V9H9Z"/>
<path fill="#ececec" d="M1 12V13H0V12V11H1Z"/>
<path fill="#02060e" d="M12 12H13V13H12ZM10 14H11V15H10ZM14 14H15V15H14Z"/>
<path fill="#545454" d="M1 13H2V14V15H1V14Z"/>
</svg>
